<svg width="58" height="58" viewBox="0 0 58 58" fill="none" xmlns="http://www.w3.org/2000/svg">
<path d="M49.5638 12.7292H56.75V16.0208H43.875V11.1505L44.5493 10.6318L44.5556 10.627L51.5122 5.39089L53.3048 4.04167H51.0612H43.875V0.75H56.75V5.62028L56.0757 6.13906L56.0694 6.14381L49.1128 11.3799L47.3202 12.7292H49.5638ZM33.3171 15.125H37.5833V18.4167H27.1042V15.4837L27.5137 15.023L27.5137 15.0231L27.5207 15.015L31.7883 10.0735L32.8594 8.83333H31.2207H27.1042V5.54167H37.5833V8.25001L37.1738 8.71071L37.169 8.7161L37.1643 8.72157L32.747 13.8876L31.689 15.125H33.3171ZM22.3125 25.306V24.7083H50.3125C53.8383 24.7083 56.75 27.62 56.75 31.1458V56.75H46.2708V52.7083V51.9583H45.5208H11.9792H11.2292V52.7083V56.75H0.75V22.7604C0.75 19.8616 3.09081 17.5208 5.98958 17.5208C8.88836 17.5208 11.2292 19.8616 11.2292 22.7604V25.306V26.6142L12.3581 25.9532C13.6826 25.1777 15.1629 24.7083 16.7708 24.7083C18.3788 24.7083 19.8591 25.1777 21.1835 25.9532L22.3125 26.6142V25.306ZM53.4583 43.125V42.375H52.7083H7.9375V22.7604C7.9375 22.2146 7.60824 21.7344 7.3119 21.4381C7.01555 21.1418 6.53543 20.8125 5.98958 20.8125C5.44374 20.8125 4.96361 21.1418 4.66727 21.4381C4.37093 21.7344 4.04167 22.2146 4.04167 22.7604V52.7083V53.4583H4.79167H7.1875H7.9375V52.7083V48.6667H49.5625V52.7083V53.4583H50.3125H52.7083H53.4583V52.7083V43.125ZM26.3542 28H25.6042V28.75V38.3333V39.0833H26.3542H52.7083H53.4583V38.3333V31.1458C53.4583 29.4027 52.0556 28 50.3125 28H26.3542ZM22.3125 33.5417C22.3125 30.4509 19.8616 28 16.7708 28C13.68 28 11.2292 30.4509 11.2292 33.5417C11.2292 36.6325 13.68 39.0833 16.7708 39.0833C19.8616 39.0833 22.3125 36.6325 22.3125 33.5417Z" fill="#999999" stroke="white" stroke-width="1.5"/>
</svg>
