<svg width="63" height="45" viewBox="0 0 63 45" fill="none" xmlns="http://www.w3.org/2000/svg">
<path d="M58.6637 15.4409C51.5343 8.44562 41.7903 4.09449 31.035 4.09449C20.2797 4.09449 10.5357 8.44562 3.40635 15.4409L1.06073 13.0953C8.80345 5.48524 19.3651 0.75 31.035 0.75C42.7049 0.75 53.2665 5.48524 61.0093 13.0953L58.6637 15.4409ZM50.1101 23.9945C45.1757 19.1941 38.4505 16.2057 31.035 16.2057C23.6195 16.2057 16.8943 19.1941 11.9599 23.9945L9.61432 21.6489C15.1616 16.2331 22.6965 12.8612 31.035 12.8612C39.3735 12.8612 46.9084 16.2331 52.4557 21.6489L50.1101 23.9945ZM41.5564 32.5482C38.8181 29.9423 35.12 28.3169 31.035 28.3169C26.95 28.3169 23.2519 29.9423 20.5136 32.5482L18.168 30.2026C21.5203 26.9801 26.0377 24.9724 31.035 24.9724C36.0328 24.9724 40.5583 26.9804 43.9026 30.202L41.5564 32.5482ZM31.035 43.0696L26.7213 38.7559C27.8761 37.7184 29.3785 37.0837 31.035 37.0837C32.6915 37.0837 34.1939 37.7184 35.3487 38.7559L31.035 43.0696Z" fill="#999999" stroke="white" stroke-width="1.5"/>
</svg>
