<svg width="65" height="49" viewBox="0 0 65 49" fill="none" xmlns="http://www.w3.org/2000/svg">
<path d="M32.0364 3.19642L31.6341 2.96038C29.8662 1.92309 28.2681 1.14071 26.7928 0.96238L26.7906 0.962113C25.2238 0.767998 23.7577 0.81115 22.0912 0.860198C21.6611 0.872856 21.2177 0.885906 20.7558 0.895373L32.0364 3.19642ZM32.0364 3.19642L32.426 2.93997M32.0364 3.19642L32.426 2.93997M32.426 2.93997C33.7866 2.04441 35.059 1.49942 36.3273 1.15895C37.5793 0.822824 38.7764 0.759887 40.0404 0.750985C40.8941 0.744973 41.7393 0.767176 42.6367 0.790749C43.0747 0.802253 43.525 0.814083 43.9949 0.823121C45.1801 0.847554 46.1592 1.15305 47.2065 1.60438C47.6233 1.78396 48.0401 1.9817 48.4888 2.19455C48.6133 2.25359 48.7402 2.3138 48.8702 2.3751C49.4622 2.65418 50.1034 2.9483 50.818 3.22853C53.6411 4.33563 57.3041 5.44827 62.4375 5.44827H64V26.6245L62.9328 26.964L62.9327 26.9639L62.9207 26.968L56.2722 29.2082L56.2217 29.2252L56.1741 29.2492L47.2855 33.7297L46.9842 33.8815L46.898 34.2076C46.5435 35.5476 46.0384 36.738 45.0715 37.697L45.0693 37.6992L44.9773 37.7912L44.8223 37.8945L44.8162 37.8986M32.426 2.93997L44.8162 37.8986M45.2383 38.5186C44.8102 37.9028 44.8102 37.9028 44.8101 37.9028L44.8098 37.903L44.8086 37.9039L44.8035 37.9074L44.7836 37.9212L44.7053 37.9756L44.4047 38.184C44.144 38.3646 43.7676 38.625 43.3053 38.944C42.3805 39.5819 41.1121 40.4539 39.7373 41.39C36.9802 43.2672 33.8184 45.3866 32.1322 46.4037L32.1315 46.4041C30.6885 47.2766 28.8662 47.8483 26.9126 47.9592C24.9604 48.0701 22.8677 47.6622 21.3415 46.1529C21.341 46.1524 21.3405 46.152 21.34 46.1515L21.2849 46.0963L6.12263 29.2012L6.02563 29.0931L5.89529 29.0291L1.63619 26.9356L1.63162 26.9334L0.75 26.4925V5.44827H2.3125C7.44889 5.44827 11.1006 4.39265 13.9281 3.30234C14.8008 2.96578 15.6198 2.57994 16.3579 2.23225C16.7855 2.03076 17.186 1.84209 17.554 1.68324C18.6076 1.22849 19.5859 0.919696 20.7556 0.895377L45.2383 38.5186ZM45.2383 38.5186L44.8102 37.9028M45.2383 38.5186L44.8102 37.9028M44.8162 37.8986L44.8102 37.9028M44.8162 37.8986L44.8102 37.9028M43.8858 3.94852L43.893 3.94878C43.9926 3.95247 44.0806 3.97424 44.1187 3.98394C44.1707 3.99715 44.2252 4.01367 44.2781 4.03078C44.3845 4.0652 44.516 4.11241 44.6651 4.16833C44.9649 4.28071 45.3695 4.44084 45.8557 4.63542C46.0825 4.72619 46.328 4.82485 46.5907 4.93039C47.4596 5.27956 48.5159 5.70406 49.7026 6.16765L49.7041 6.16823C52.248 7.16825 55.8124 8.06493 60.1753 8.35816L60.875 8.40519V9.10647V23.8487V24.3869L60.365 24.5592L55.0174 26.3658L54.9006 26.4053H54.81L47.8167 29.938L47.065 30.3177L46.7746 29.5273C46.412 28.5408 45.9262 27.6606 45.1997 26.8938L45.1556 26.8473L45.1201 26.794L44.9954 26.607L35.1899 14.5664L35.1858 14.5613L35.1858 14.5613L34.209 13.3403L32.993 14.3131L32.9881 14.3171L26.7781 19.3717L26.7556 19.3901L26.7317 19.4066C25.5728 20.2093 24.4744 20.5248 23.399 20.495C22.346 20.4659 21.3824 20.1067 20.492 19.6849C20.4918 19.6848 20.4916 19.6847 20.4914 19.6847L20.8125 19.0069L43.8858 3.94852ZM43.8858 3.94852L43.8786 3.94839C43.3257 3.93851 42.8067 3.92471 42.319 3.91174C41.4952 3.88984 40.7603 3.8703 40.1009 3.87603C39.0485 3.88518 38.0935 3.93917 37.1665 4.19081L43.8858 3.94852ZM26.3936 4.02582L26.3929 4.02574C25.6535 3.93818 24.871 3.93018 23.9769 3.94842C23.4399 3.95938 22.845 3.9737 22.197 3.98929C21.7758 3.99942 21.3322 4.01009 20.8676 4.02073L20.8676 4.02069L20.8598 4.02095C20.7047 4.02612 20.542 4.07883 20.4672 4.10302L20.4636 4.10419C20.3537 4.13978 20.2197 4.18842 20.0693 4.2455C19.7673 4.36014 19.362 4.52309 18.8781 4.71891C18.783 4.7574 18.6846 4.79727 18.583 4.83841C17.6457 5.21807 16.4386 5.70702 15.052 6.23812L15.0514 6.23837C12.5179 7.21145 8.92535 8.07345 4.57603 8.35807L3.875 8.40395V9.10647V24.0655V24.529L4.28959 24.7363L7.90007 26.5415L8.08622 26.7742L8.10021 26.7917L8.11522 26.8083L23.5801 43.9353L23.5929 43.9495L23.6064 43.963L23.6787 44.0352L23.7022 44.0588L23.7277 44.0801C24.3745 44.6213 25.4989 44.9003 26.7783 44.832L26.7814 44.8318C28.1625 44.7523 29.6897 44.2171 30.523 43.713L30.5247 43.712C30.6408 43.6413 30.8401 43.5115 31.0288 43.3886L31.0296 43.3882L31.0373 43.3831C31.2323 43.2562 31.4213 43.1331 31.542 43.0581L32.2359 42.6275L31.7478 41.9727L29.2374 38.6051L31.7825 36.7452L34.4463 40.3383L34.8706 40.9105L35.4638 40.5163C36.1179 40.0818 36.5827 39.7567 37.0322 39.4399C37.0807 39.4058 37.1289 39.3718 37.1771 39.3378C37.5756 39.0568 37.9747 38.7754 38.5043 38.4171L39.1545 37.9771L38.6853 37.3477L36.1749 33.9801L38.7183 32.1215L41.3103 35.6393L41.759 36.2482L42.347 35.8071C42.3537 35.8029 42.3629 35.7973 42.3745 35.7901C42.4049 35.7716 42.4443 35.7479 42.4848 35.7238C42.525 35.6999 42.5646 35.6766 42.5947 35.6591L42.627 35.6403L42.7197 35.5939L42.8057 35.5079C42.8517 35.4619 42.8927 35.4093 42.9268 35.3505C42.9453 35.3186 42.961 35.2864 42.974 35.2542C44.5727 33.4406 44.5795 30.7251 42.8194 28.9686L42.8017 28.9332L42.7647 28.8593L42.7126 28.7952L34.1852 18.3167L33.7093 17.7319L33.1271 18.2108L28.6466 21.8964L28.6185 21.9195L28.5927 21.9453L28.4963 22.0417C25.2148 24.2912 21.5489 23.6761 19.1102 22.5205C17.8834 21.9391 16.8687 21.2177 16.1591 20.6389C15.8054 20.3503 15.5302 20.0994 15.3454 19.9226C15.253 19.8342 15.1834 19.7646 15.1379 19.7182C15.1152 19.695 15.0986 19.6777 15.0882 19.6668L15.0773 19.6553L15.076 19.6538L15.0761 19.6537L15.0664 19.6437L13.8955 18.424L15.2159 17.3481L15.216 17.3481L15.2207 17.3441L27.8672 6.86563L27.8942 6.84325L27.919 6.81844L27.9193 6.81812L27.9196 6.81781L27.92 6.81749L27.9203 6.81717L27.9206 6.81686L27.9209 6.81654L27.9212 6.81623L27.9215 6.81591L27.9218 6.8156L27.9222 6.81529L27.9225 6.81497L27.9228 6.81466L27.9231 6.81435L27.9234 6.81404L27.9237 6.81372L27.924 6.81341L27.9243 6.8131L27.9247 6.81279L27.925 6.81248L27.9253 6.81217L27.9256 6.81186L27.9259 6.81155L27.9262 6.81124L27.9265 6.81094L27.9268 6.81063L27.9271 6.81032L27.9274 6.81001L27.9277 6.80971L27.928 6.8094L27.9284 6.80909L27.9287 6.80879L27.929 6.80848L27.9293 6.80818L27.9296 6.80787L27.9299 6.80757L27.9302 6.80726L27.9305 6.80696L27.9308 6.80666L27.9311 6.80635L27.9314 6.80605L27.9317 6.80575L27.932 6.80545L27.9323 6.80515L27.9326 6.80485L27.9329 6.80454L27.9332 6.80424L27.9335 6.80394L27.9338 6.80364L27.9341 6.80335L27.9344 6.80305L27.9347 6.80275L27.935 6.80245L27.9353 6.80215L27.9356 6.80185L27.9359 6.80156L27.9362 6.80126L27.9365 6.80096L27.9368 6.80067L27.9371 6.80037L27.9374 6.80007L27.9377 6.79978L27.938 6.79948L27.9383 6.79919L27.9386 6.79889L27.9388 6.7986L27.9391 6.79831L27.9394 6.79801L27.9397 6.79772L27.94 6.79743L27.9403 6.79713L27.9406 6.79684L27.9409 6.79655L27.9412 6.79626L27.9415 6.79596L27.9418 6.79567L27.9421 6.79538L27.9424 6.79509L27.9426 6.7948L27.9429 6.79451L27.9432 6.79422L27.9435 6.79393L27.9438 6.79364L27.9441 6.79335L27.9444 6.79307L27.9447 6.79278L27.945 6.79249L27.9452 6.7922L27.9455 6.79191L27.9458 6.79163L27.9461 6.79134L27.9464 6.79105L27.9467 6.79077L27.947 6.79048L27.9473 6.79019L27.9475 6.78991L27.9478 6.78962L27.9481 6.78934L27.9484 6.78905L27.9487 6.78877L27.949 6.78848L27.9492 6.7882L27.9495 6.78791L27.9498 6.78763L27.9501 6.78735L27.9504 6.78706L27.9507 6.78678L27.9509 6.7865L27.9512 6.78622L27.9515 6.78593L27.9518 6.78565L27.9521 6.78537L27.9524 6.78509L27.9526 6.78481L27.9529 6.78453L27.9532 6.78425L27.9535 6.78397L27.9538 6.78368L27.954 6.7834L27.9543 6.78312L27.9546 6.78285L27.9549 6.78257L27.9552 6.78229L27.9554 6.78201L27.9557 6.78173L27.956 6.78145L27.9563 6.78117L27.9566 6.78089L27.9568 6.78062L27.9571 6.78034L27.9574 6.78006L27.9577 6.77978L27.9579 6.77951L27.9582 6.77923L27.9585 6.77895L27.9588 6.77868L27.959 6.7784L27.9593 6.77812L27.9596 6.77785L27.9599 6.77757L27.9601 6.7773L27.9604 6.77702L27.9607 6.77674L27.961 6.77647L27.9612 6.77619L27.9615 6.77592L27.9618 6.77565L27.9621 6.77537L27.9623 6.7751L27.9626 6.77482L27.9629 6.77455L27.9632 6.77428L27.9634 6.774L27.9637 6.77373L27.964 6.77346L27.9643 6.77318L27.9645 6.77291L27.9648 6.77264L27.9651 6.77236L27.9654 6.77209L27.9656 6.77182L27.9659 6.77155L27.9662 6.77128L27.9664 6.771L27.9667 6.77073L27.967 6.77046L27.9673 6.77019L27.9675 6.76992L27.9678 6.76965L27.9681 6.76938L27.9683 6.76911L27.9686 6.76884L27.9689 6.76857L27.9691 6.7683L27.9694 6.76803L27.9697 6.76776L27.97 6.76749L27.9702 6.76722L27.9705 6.76695L27.9708 6.76668L27.971 6.76641L27.9713 6.76614L27.9716 6.76587L27.9718 6.7656L27.9721 6.76533L27.9724 6.76506L27.9727 6.76479L27.9729 6.76452L27.9732 6.76426L27.9735 6.76399L27.9737 6.76372L27.974 6.76345L27.9743 6.76318L27.9745 6.76292L27.9748 6.76265L27.9751 6.76238L27.9753 6.76211L27.9756 6.76185L27.9759 6.76158L27.9761 6.76131L27.9764 6.76104L27.9767 6.76078L27.9769 6.76051L27.9772 6.76024L27.9775 6.75998L27.9777 6.75971L27.978 6.75944L27.9783 6.75918L27.9785 6.75891L27.9788 6.75864L27.9791 6.75838L27.9793 6.75811L27.9796 6.75784L27.9799 6.75758L27.9801 6.75731L27.9804 6.75705L27.9807 6.75678L27.9809 6.75651L27.9812 6.75625L27.9815 6.75598L27.9817 6.75572L27.982 6.75545L27.9823 6.75518L27.9825 6.75492L27.9828 6.75465L27.9831 6.75439L27.9833 6.75412L27.9836 6.75386L27.9839 6.75359L27.9841 6.75333L27.9844 6.75306L27.9846 6.7528L27.9849 6.75253L27.9852 6.75227L27.9854 6.752L27.9857 6.75174L27.986 6.75147L27.9862 6.75121L27.9865 6.75094L27.9868 6.75068L27.987 6.75041L27.9873 6.75015L27.9876 6.74988L27.9878 6.74962L27.9881 6.74935L27.9884 6.74909L27.9886 6.74882L27.9889 6.74856L27.9892 6.74829L27.9894 6.74803L27.9897 6.74776L27.9899 6.7475L27.9902 6.74723L27.9905 6.74697L27.9907 6.74671L27.991 6.74644L27.9913 6.74618L27.9915 6.74591L27.9918 6.74565L27.9921 6.74538L27.9923 6.74512L27.9926 6.74485L27.9929 6.74459L27.9931 6.74432L27.9934 6.74406L27.9937 6.74379L27.9939 6.74353L27.9942 6.74326L27.9944 6.743L27.9947 6.74274L27.995 6.74247L27.9952 6.74221L27.9955 6.74194L27.9958 6.74168L27.996 6.74141L27.9963 6.74115L27.9966 6.74088L27.9968 6.74062L27.9971 6.74035L27.9974 6.74009L27.9976 6.73982L27.9979 6.73956L27.9982 6.73929L27.9984 6.73903L27.9987 6.73876L27.9989 6.73849L27.9992 6.73823L27.9995 6.73796L27.9997 6.7377L28 6.73743L28.0003 6.73717L28.0005 6.7369L28.0008 6.73664L28.0011 6.73637L28.0013 6.7361L28.0016 6.73584L28.0019 6.73557L28.0021 6.73531L28.0024 6.73504L28.0027 6.73478L28.0029 6.73451L28.0032 6.73424L28.0035 6.73398L28.0037 6.73371L28.004 6.73344L28.0043 6.73318L28.0045 6.73291L28.0048 6.73264L28.0051 6.73238L28.0053 6.73211L28.0056 6.73184L28.0059 6.73158L28.0061 6.73131L28.0064 6.73104L28.0067 6.73077L28.0069 6.73051L28.0072 6.73024L28.0075 6.72997L28.0077 6.7297L28.008 6.72944L28.0083 6.72917L28.0085 6.7289L28.0088 6.72863L28.0091 6.72836L28.0093 6.7281L28.0096 6.72783L28.0099 6.72756L28.0102 6.72729L28.0104 6.72702L28.0107 6.72675L28.011 6.72648L28.0112 6.72621L28.0115 6.72594L28.0118 6.72568L28.012 6.72541L28.0123 6.72514L28.0126 6.72487L28.0128 6.7246L28.0131 6.72433L28.0134 6.72406L28.0137 6.72379L28.0139 6.72352L28.0142 6.72325L28.0145 6.72297L28.0147 6.7227L28.015 6.72243L28.0153 6.72216L28.0156 6.72189L28.0158 6.72162L28.0161 6.72135L28.0164 6.72108L28.0166 6.7208L28.0169 6.72053L28.0172 6.72026L28.0175 6.71999L28.0177 6.71972L28.018 6.71944L28.0183 6.71917L28.0185 6.7189L28.0188 6.71862L28.0191 6.71835L28.0194 6.71808L28.0196 6.7178L28.0199 6.71753L28.0202 6.71726L28.0205 6.71698L28.0207 6.71671L28.021 6.71643L28.0213 6.71616L28.0216 6.71588L28.0218 6.71561L28.0221 6.71533L28.0224 6.71506L28.0227 6.71478L28.0229 6.71451L28.0232 6.71423L28.0235 6.71395L28.0238 6.71368L28.024 6.7134L28.0243 6.71312L28.0246 6.71285L28.0249 6.71257L28.0252 6.71229L28.0254 6.71201L28.0257 6.71174L28.026 6.71146L28.0263 6.71118L28.0265 6.7109L28.0268 6.71062L28.0271 6.71035L28.0274 6.71007L28.0277 6.70979L28.0279 6.70951L28.0282 6.70923L28.0285 6.70895L28.0288 6.70867L28.0291 6.70839L28.0293 6.70811L28.0296 6.70783L28.0299 6.70754L28.0302 6.70726L28.0305 6.70698L28.0307 6.7067L28.031 6.70642L28.0313 6.70614L28.0316 6.70585L28.0319 6.70557L28.0322 6.70529L28.0324 6.705L28.0327 6.70472L28.033 6.70444L28.0333 6.70415L28.0336 6.70387L28.0339 6.70359L28.0341 6.7033L28.0344 6.70302L28.0347 6.70273L28.035 6.70245L28.0353 6.70216L28.0356 6.70187L28.0359 6.70159L28.0361 6.7013L28.0364 6.70101L28.0367 6.70073L28.037 6.70044L28.0373 6.70015L28.0376 6.69986L28.0379 6.69958L28.0382 6.69929L28.0384 6.699L28.0387 6.69871L28.039 6.69842L28.0393 6.69813L28.0396 6.69784L28.0399 6.69755L28.0402 6.69726L28.0405 6.69697L28.0408 6.69668L28.0411 6.69639L28.0413 6.6961L28.0416 6.6958L28.0419 6.69551L28.0422 6.69522L28.0425 6.69493L28.0428 6.69463L28.0431 6.69434L28.0434 6.69405L28.0437 6.69375L28.044 6.69346L28.0443 6.69316L28.0446 6.69287L28.0449 6.69257L28.0452 6.69228L28.0455 6.69198L28.0458 6.69169L28.0461 6.69139L28.0464 6.69109L28.0466 6.6908L28.0469 6.6905L28.0472 6.6902L28.0475 6.6899L28.0478 6.6896L28.0481 6.68931L28.0484 6.68901L28.0487 6.68871L28.049 6.68841L28.0493 6.68811L28.0496 6.68781L28.0499 6.68751L28.0502 6.68721L28.0505 6.6869L28.0508 6.6866L28.0511 6.6863L28.0514 6.686L28.0517 6.68569L28.0521 6.68539L28.0524 6.68509L28.0527 6.68478L28.053 6.68448L28.0533 6.68418L28.0536 6.68387L28.0539 6.68356L28.0542 6.68326L28.0545 6.68295L28.0548 6.68265L28.0551 6.68234L28.0554 6.68203L28.0557 6.68173L28.056 6.68142L28.0563 6.68111L28.0566 6.6808L28.057 6.68049L28.0573 6.68018L28.0576 6.67987L28.0579 6.67956L28.0582 6.67925L28.0584 6.67907C28.1625 6.57909 28.2521 6.50101 28.3499 6.41719C28.3621 6.40672 28.3745 6.39608 28.3872 6.38523C28.4768 6.3086 28.5785 6.22165 28.6923 6.11656L29.606 5.27318L28.4338 4.85841C28.2598 4.79685 28.0801 4.70305 27.8452 4.58037C27.7674 4.53977 27.6836 4.49601 27.592 4.44921C27.2749 4.28734 26.844 4.0796 26.3936 4.02582ZM41.5642 35.1795C41.5642 35.1795 41.5635 35.1773 41.5626 35.1747L41.5639 35.1786L41.5642 35.1795ZM42.9866 34.7033C42.9866 34.7033 42.9873 34.7055 42.9882 34.7082L42.9869 34.7043L42.9866 34.7033Z" fill="#999999" stroke="white" stroke-width="1.5"/>
</svg>
