<svg width="31" height="31" viewBox="0 0 31 31" fill="none" xmlns="http://www.w3.org/2000/svg">
<path d="M8.99733 0C4.04348 0 0 4.04348 0 8.99733V22.0027C0 26.9589 4.04348 31 8.99733 31H22.0027C26.9589 31 31 26.9589 31 22.0027V8.99733C31 4.04348 26.9589 0 22.0027 0H8.99733ZM8.99733 2.38352H22.0027C25.6678 2.38352 28.6165 5.32746 28.6165 8.99733V22.0027C28.6165 25.6678 25.6725 28.6165 22.0027 28.6165H8.99733C5.33219 28.6165 2.38352 25.6725 2.38352 22.0027V8.99733C2.38352 5.33219 5.32746 2.38352 8.99733 2.38352ZM24.4429 4.76941C23.4545 4.76941 22.6553 5.57101 22.6553 6.55706C22.6553 7.54546 23.4545 8.34706 24.4429 8.34706C25.4313 8.34706 26.2306 7.54546 26.2306 6.55706C26.2306 5.57101 25.4313 4.76941 24.4429 4.76941ZM15.5 7.15294C10.9032 7.15294 7.15294 10.9032 7.15294 15.5C7.15294 20.0968 10.9032 23.8471 15.5 23.8471C20.0968 23.8471 23.8471 20.0968 23.8471 15.5C23.8471 10.9032 20.0968 7.15294 15.5 7.15294ZM15.5 9.53883C18.8081 9.53883 21.4612 12.1943 21.4612 15.5C21.4612 18.8081 18.8081 21.4612 15.5 21.4612C12.1943 21.4612 9.53883 18.8081 9.53883 15.5C9.53883 12.1943 12.1943 9.53883 15.5 9.53883Z" fill="white"/>
</svg>
